<svg width="20" height="20" viewBox="0 0 20 20" fill="none" xmlns="http://www.w3.org/2000/svg">
<path d="M7.82262 8.34055C6.99755 8.34055 6.19103 8.09581 5.5051 7.6373C4.81916 7.17879 4.28465 6.52712 3.9692 5.76474C3.65374 5.00237 3.57152 4.16355 3.73293 3.35442C3.89434 2.5453 4.29213 1.80224 4.87597 1.21926C5.45981 0.636288 6.20346 0.239595 7.01282 0.0793818C7.82218 -0.0808318 8.66088 0.00263416 9.42279 0.319219C10.1847 0.635803 10.8356 1.17128 11.2931 1.85789C11.7506 2.5445 11.9941 3.35138 11.9929 4.17645C11.9896 5.2809 11.549 6.3391 10.7675 7.11949C9.98592 7.89988 8.92707 8.33892 7.82262 8.34055ZM7.82262 1.23998C7.24184 1.23998 6.6741 1.4122 6.1912 1.73486C5.7083 2.05753 5.33193 2.51614 5.10968 3.05271C4.88742 3.58928 4.82927 4.1797 4.94257 4.74932C5.05588 5.31894 5.33555 5.84217 5.74622 6.25284C6.15689 6.66351 6.68012 6.94318 7.24974 7.05649C7.81936 7.16979 8.40978 7.11164 8.94635 6.88938C9.48292 6.66713 9.94153 6.29076 10.2642 5.80786C10.5869 5.32496 10.7591 4.75722 10.7591 4.17645C10.7591 3.39765 10.4497 2.65074 9.89901 2.10005C9.34831 1.54936 8.60141 1.23998 7.82262 1.23998Z" fill="#A8A8A8"/>
<path d="M8.89576 18.7475C8.76094 18.6126 8.65693 18.4501 8.5909 18.2712C8.52488 18.0923 8.49839 17.9012 8.51328 17.7111H1.23381V14.1454C2.10852 13.212 3.16948 12.4728 4.348 11.9754C5.52652 11.4781 6.79635 11.2338 8.07528 11.2583H8.51945C8.49113 11.0515 8.51091 10.8409 8.57725 10.6429C8.64359 10.445 8.7547 10.265 8.90193 10.117L8.97596 10.0492C8.68602 10.0492 8.35906 10.0121 8.07528 10.0121C6.57028 9.97641 5.07615 10.2756 3.70092 10.888C2.32568 11.5004 1.10372 12.4107 0.123381 13.5532C0.0432931 13.66 0 13.7898 0 13.9233V17.7111C0 18.0383 0.12999 18.3522 0.361374 18.5835C0.592758 18.8149 0.906582 18.9449 1.23381 18.9449H9.0685L8.89576 18.7475Z" fill="#A8A8A8"/>
<path d="M15.3418 9.25352C15.3723 9.2472 15.4038 9.2472 15.4343 9.25352C15.4037 9.24797 15.3724 9.24797 15.3418 9.25352Z" fill="#A8A8A8"/>
<path d="M19.5438 13.5904L18.31 13.2141C18.2218 12.9123 18.1019 12.6208 17.9522 12.3443L18.5691 11.1968C18.5892 11.1509 18.594 11.0998 18.5829 11.051C18.5718 11.0021 18.5454 10.9581 18.5074 10.9254L17.6129 10.0309C17.5791 9.99426 17.5339 9.97009 17.4847 9.96226C17.4355 9.95442 17.385 9.96338 17.3415 9.9877L16.2064 10.6046C15.9269 10.4475 15.6311 10.3213 15.3242 10.2283L14.9479 8.99448C14.9319 8.94907 14.9016 8.91007 14.8616 8.88337C14.8215 8.85666 14.7739 8.8437 14.7258 8.84643H13.4612C13.4126 8.84586 13.3652 8.86125 13.3262 8.89022C13.2872 8.91919 13.2587 8.96015 13.2452 9.00682L12.8689 10.2406C12.56 10.3305 12.262 10.4547 11.9806 10.6108L10.8578 9.99387C10.8152 9.97002 10.7658 9.96131 10.7177 9.96915C10.6695 9.977 10.6254 10.0009 10.5926 10.0371L9.67954 10.9254C9.64569 10.961 9.6239 11.0064 9.61726 11.0551C9.61062 11.1039 9.61946 11.1534 9.64253 11.1968L10.2594 12.3196C10.0963 12.5977 9.96585 12.8937 9.87078 13.2018L8.63697 13.5719C8.5903 13.5854 8.54934 13.6138 8.52037 13.6528C8.4914 13.6918 8.47602 13.7393 8.47658 13.7878V15.0525C8.48022 15.097 8.49761 15.1394 8.52634 15.1736C8.55507 15.2079 8.59373 15.2324 8.63697 15.2437L9.87078 15.62C9.96196 15.9227 10.0861 16.2143 10.2409 16.4899L9.62402 17.6682C9.60048 17.7104 9.59136 17.7591 9.59804 17.807C9.60472 17.8549 9.62684 17.8993 9.66103 17.9334L10.5555 18.8279C10.5905 18.8628 10.6355 18.8857 10.6843 18.8935C10.733 18.9012 10.783 18.8934 10.827 18.8711L11.9806 18.2542C12.2551 18.4019 12.5447 18.5198 12.8443 18.6059L13.2144 19.8397C13.2296 19.8853 13.2584 19.9252 13.2971 19.9539C13.3357 19.9826 13.3822 19.9987 13.4303 20.0001H14.695C14.7433 19.9996 14.7903 19.9839 14.8291 19.955C14.8679 19.9262 14.8965 19.8858 14.9109 19.8397L15.2872 18.575C15.5828 18.4888 15.8683 18.3709 16.1385 18.2234L17.3045 18.8403C17.3473 18.8631 17.3965 18.8712 17.4444 18.8634C17.4923 18.8556 17.5363 18.8323 17.5697 18.7971L18.5074 17.9581C18.5327 17.9219 18.5462 17.8788 18.5462 17.8347C18.5462 17.7906 18.5327 17.7475 18.5074 17.7113L17.8905 16.5516C18.0403 16.2794 18.1603 15.9919 18.2483 15.6941L19.4822 15.3178C19.5288 15.3043 19.5698 15.2758 19.5988 15.2368C19.6277 15.1978 19.6431 15.1504 19.6425 15.1018V13.8063C19.6482 13.7647 19.6419 13.7223 19.6245 13.6841C19.607 13.6459 19.579 13.6134 19.5438 13.5904ZM14.0966 16.4775C13.6885 16.4788 13.2893 16.3588 12.9495 16.1329C12.6097 15.9069 12.3447 15.5852 12.188 15.2084C12.0313 14.8317 11.9899 14.4169 12.0692 14.0166C12.1486 13.6164 12.3449 13.2486 12.6335 12.9601C12.922 12.6716 13.2897 12.4752 13.69 12.3959C14.0902 12.3166 14.505 12.3579 14.8818 12.5146C15.2585 12.6714 15.5803 12.9364 15.8062 13.2762C16.0321 13.616 16.1521 14.0152 16.1509 14.4232C16.1492 14.9676 15.9323 15.4891 15.5474 15.874C15.1625 16.259 14.6409 16.4759 14.0966 16.4775Z" fill="#A8A8A8"/>
</svg>
