<svg width="20" height="21" viewBox="0 0 20 21" fill="none" xmlns="http://www.w3.org/2000/svg">
<path d="M12.7828 0.00173008C12.6278 0.00793045 12.4782 0.0358321 12.3224 0.0745844L1.78641 2.64154C0.540138 2.94691 -0.239559 4.20403 0.0665846 5.45108L1.54382 11.4825C1.63334 11.8418 1.80763 12.1743 2.05211 12.4524C2.29659 12.7304 2.60413 12.9459 2.94898 13.0806V11.6274C2.94898 9.49062 4.68741 7.75219 6.82421 7.75219H16.5851L15.1319 1.76961C15.0034 1.24957 14.6995 0.789758 14.2714 0.467713C13.8433 0.145667 13.3173 -0.0189113 12.782 0.00173008H12.7828ZM13.7268 3.3445L14.3569 5.98431L11.7411 6.61365L11.087 3.99787L13.7268 3.3445ZM6.82421 9.30229C5.54074 9.30229 4.49907 10.3439 4.49907 11.6274V17.8278C4.49907 19.1113 5.54074 20.1529 6.82421 20.1529H17.6749C18.9583 20.1529 20 19.1113 20 17.8278V11.6274C20 10.3439 18.9583 9.30229 17.6749 9.30229H6.82421ZM6.82421 10.5377H17.6749C18.2724 10.5377 18.7646 11.0299 18.7646 11.6274V12.4025H5.7345V11.6274C5.7345 11.0299 6.22665 10.5377 6.82421 10.5377ZM5.7345 14.7276H18.7646V17.8278C18.7646 18.4254 18.2724 18.9175 17.6749 18.9175H6.82421C6.53571 18.9159 6.25948 18.8006 6.05547 18.5965C5.85146 18.3925 5.73613 18.1163 5.7345 17.8278V14.7276Z" fill="#A8A8A8"/>
</svg>
