<svg width="23" height="16" viewBox="0 0 23 16" fill="none" xmlns="http://www.w3.org/2000/svg">
<path d="M18.7156 0C17.9314 0.758118 16.9986 1.34172 15.9773 1.71314C14.9005 1.90511 11.9204 0.508998 10.4519 1.93419C10.2072 2.18142 9.90486 2.42865 9.58813 2.67588C8.8971 2.37048 7.83175 1.90511 7.05433 1.45428C6.27692 1.00345 4.31898 0 4.31898 0L0 5.08998C0 5.08998 1.06535 6.54426 1.72759 7.50409C2.15949 8.14397 2.69216 9.11834 3.03768 9.77277L2.5482 10.3545C2.43098 10.5897 2.3888 10.8558 2.42747 11.1163C2.46615 11.3767 2.58377 11.6186 2.76415 11.8088C2.97235 11.9664 3.22568 12.0514 3.4859 12.0509C3.74612 12.0504 3.9991 11.9644 4.20669 11.8059C4.12971 11.8969 4.07146 12.0025 4.03533 12.1165C3.99919 12.2305 3.98589 12.3507 3.99621 12.4699C4.00653 12.5892 4.04026 12.7052 4.09543 12.8112C4.1506 12.9171 4.2261 13.0109 4.31754 13.0871C4.53738 13.2168 4.78749 13.2849 5.04208 13.2844C5.29667 13.2839 5.54651 13.2147 5.76584 13.0842C5.60135 13.2913 5.51134 13.5487 5.51056 13.8142C5.50977 14.0797 5.59826 14.3376 5.76152 14.5457C5.97374 14.6199 6.20007 14.6436 6.42284 14.6148C6.6456 14.5861 6.85877 14.5057 7.04569 14.3799C6.95257 14.6026 6.92845 14.8485 6.97651 15.0853C7.02457 15.3221 7.14256 15.5386 7.31491 15.7062C7.55837 15.8155 7.8253 15.8606 8.0907 15.8372C8.3561 15.8138 8.61128 15.7227 8.83231 15.5724L9.57518 14.8933C10.2547 15.5768 11.1919 16 12.227 16L12.3148 15.9985C12.656 15.9691 12.9827 15.8465 13.2602 15.6439C13.5376 15.4413 13.7553 15.1662 13.8898 14.8482C14.1 14.9296 14.339 14.9849 14.5924 14.9849C14.9321 14.9849 15.2474 14.886 15.5138 14.7159C16.356 14.1531 16.1544 13.7168 16.1544 13.7168C16.4539 13.847 16.7865 13.8779 17.1045 13.805C17.4225 13.732 17.7093 13.5591 17.9238 13.311C18.1466 13.0807 18.2871 12.782 18.3231 12.462C18.3591 12.142 18.2885 11.819 18.1224 11.5441C18.1315 11.5496 18.1421 11.5521 18.1527 11.5514C18.7588 11.5514 19.2857 11.214 19.5607 10.7166C19.696 10.3631 19.7417 9.98105 19.6937 9.60517C19.6456 9.22928 19.5054 8.87147 19.2857 8.56426L19.29 8.57153C20.4705 8.33885 20.4273 7.74259 21.0032 6.87002C21.5484 6.15796 22.2269 5.56106 23 5.11325L18.7156 0ZM18.6436 10.2672C18.0101 10.9071 17.5207 10.6308 16.4409 9.80185C15.3612 8.97291 13.2161 7.41683 13.2161 7.41683C13.3039 7.86039 13.5069 8.24577 13.7934 8.55263C14.2526 9.07471 15.6203 10.2672 16.2682 10.878C16.6713 11.2561 17.7078 12.0124 17.1032 12.5941C16.4985 13.1758 16.0234 12.5941 15.03 11.7797C14.0367 10.9653 11.8196 8.95837 11.8196 8.95837C11.8074 9.15075 11.8357 9.34355 11.9027 9.52405C11.9697 9.70454 12.0739 9.86863 12.2083 10.0055C12.4531 10.2963 13.8207 11.6342 14.3966 12.245C14.9725 12.8558 15.4763 13.2194 14.9869 13.6993C14.4974 14.1792 13.504 13.423 12.9569 12.8558C12.1075 12.0269 10.4231 10.4854 10.4231 10.4854L10.4217 10.5624C10.4217 10.9755 10.5628 11.3536 10.8003 11.6532C11.2149 12.2029 12.0212 12.9155 12.5106 13.4681C13.0001 14.0207 13.2881 14.4861 12.5106 14.9224C11.7332 15.3587 10.5815 14.2825 10.0776 13.759V13.756C10.0777 13.6124 10.0266 13.4735 9.93365 13.3648C9.76144 13.2037 9.54897 13.0931 9.31913 13.0449C9.08928 12.9967 8.85078 13.0128 8.62932 13.0914C8.72044 13.009 8.79348 12.9083 8.84375 12.7957C8.89402 12.683 8.92042 12.561 8.92123 12.4375C8.92204 12.314 8.89726 12.1916 8.84848 12.0783C8.79969 11.965 8.72798 11.8633 8.63796 11.7797C8.44898 11.635 8.21832 11.5569 7.98123 11.5571C7.74414 11.5574 7.51365 11.6361 7.32499 11.7811C7.42038 11.6891 7.49403 11.5765 7.54044 11.4518C7.58686 11.327 7.60486 11.1933 7.5931 11.0606C7.58134 10.9279 7.54013 10.7995 7.47253 10.6851C7.40493 10.5706 7.31267 10.473 7.20262 10.3996C6.94489 10.236 6.64248 10.1591 6.3388 10.18C6.03513 10.2009 5.74583 10.3185 5.51246 10.5159C5.66843 10.3249 5.74533 10.0805 5.72709 9.83361C5.70884 9.58672 5.59687 9.35651 5.41456 9.19106C5.18798 8.97802 4.89923 8.84477 4.59148 8.81121C4.28372 8.77766 3.97348 8.84561 3.70712 9.00491L2.74975 7.37175C2.08751 6.31013 1.31009 5.20487 1.31009 5.20487L4.59251 1.17651C4.59251 1.17651 5.75864 1.90365 6.72321 2.45628C7.1983 2.73259 8.0189 3.09616 8.63796 3.38702C7.65899 4.1287 6.83838 4.8413 7.08312 5.33576C7.51927 5.65203 8.04051 5.82647 8.57732 5.83583C9.11413 5.84518 9.64101 5.689 10.0877 5.38811C10.6604 5.0035 11.3334 4.7995 12.0212 4.80204C12.5207 4.80204 12.9958 4.90674 13.4263 5.09726C14.2238 5.64116 15.6923 6.97909 17.0312 7.82258C18.7156 9.05872 19.0467 9.85857 18.6436 10.2658V10.2672Z" fill="#A8A8A8"/>
</svg>
