<svg id="Layer_1" data-name="Layer 1" xmlns="http://www.w3.org/2000/svg" viewBox="0 0 56.69 56.69"><defs><style>.cls-1{fill:#fff;}</style></defs><path class="cls-1" d="M278,261.27l-.29.16a4,4,0,0,0-4.77-1.19h0l-.69.37a5.21,5.21,0,0,0-6-.54l-3.7,2h-4.93a7,7,0,0,1-3.08-.71l-.68-.32a11.61,11.61,0,0,0-12.1,1.18l0,0-1.64,1.45a5.74,5.74,0,0,1-2.14,1.2l-.93-3.06a.73.73,0,0,0-.7-.52h-7.92a.74.74,0,0,0-.73.74v.09l2.64,21.62a.74.74,0,0,0,.73.65H242.9a.74.74,0,0,0,.74-.73.78.78,0,0,0,0-.22L242,278.38l4.86-3.06A2.93,2.93,0,0,1,249,275h.05l9.88,1.82a12.72,12.72,0,0,0,7.89-1.12.19.19,0,0,0,.09-.05L284,264a.74.74,0,0,0,.21-1A4.69,4.69,0,0,0,278,261.27Zm-4.38.28a2.53,2.53,0,0,1,2.75.6l-6.48,3.5-.38.2a5.76,5.76,0,0,0-.89-1.61Zm-6.65-.19h0a3.77,3.77,0,0,1,3.81,0l-3.29,1.77a5.66,5.66,0,0,0-2.11-.94ZM231.68,283l-2.46-20.15h6.54L241.9,283Zm34.47-8.52a11.35,11.35,0,0,1-6.93,1l-9.85-1.82a4.43,4.43,0,0,0-3.21.44l0,0-4.53,2.86-3.23-10.58a7.25,7.25,0,0,0,2.69-1.51l1.61-1.44a10.16,10.16,0,0,1,10.55-1l.68.33a8.55,8.55,0,0,0,3.72.85h6.57a4.17,4.17,0,0,1,4.08,3.37l-4.77-.21a28.06,28.06,0,0,0-5.18.24.74.74,0,0,0,.2,1.46,27,27,0,0,1,4.92-.23l5.6.25h0a.74.74,0,0,0,.73-.74c0-.12,0-.24,0-.36l.77-.4,8.12-4.38a3.21,3.21,0,0,1,3.87.62Z" transform="translate(-227.66 -227.76)"/><path class="cls-1" d="M234,279.93a2.32,2.32,0,1,0,2.32-2.32A2.32,2.32,0,0,0,234,279.93Zm2.32-.84a.84.84,0,0,1,.85.84.85.85,0,1,1-.85-.84Z" transform="translate(-227.66 -227.76)"/><path class="cls-1" d="M261.6,235.75v-2.43a5.59,5.59,0,0,0-11.18,0v2.43a5.59,5.59,0,0,0,11.18,0Zm-9.71,0v-2.43a4.12,4.12,0,0,1,8.24,0v2.43a4.12,4.12,0,0,1-8.24,0Z" transform="translate(-227.66 -227.76)"/><path class="cls-1" d="M247,256.51h18a.74.74,0,0,0,.74-.73h0v-1.69H278.1a.74.74,0,0,0,.74-.74v-4.78a5.53,5.53,0,0,0-5.17-5.51.85.85,0,0,0-.76.42,3.38,3.38,0,0,1-4.76.48,3.3,3.3,0,0,1-.57-.61.78.78,0,0,0-.62-.3,5.47,5.47,0,0,0-2.7.79,6.22,6.22,0,0,0-4.33-2.14.9.9,0,0,0-.76.44,4,4,0,0,1-5.58.56,4.09,4.09,0,0,1-.67-.71.74.74,0,0,0-.61-.3,6.16,6.16,0,0,0-4.28,1.87,3.71,3.71,0,0,0-.27.29,5.57,5.57,0,0,0-2.51-.79.86.86,0,0,0-.76.42,3.38,3.38,0,0,1-4.76.48,3.3,3.3,0,0,1-.57-.61.77.77,0,0,0-.61-.3,5.52,5.52,0,0,0-5.38,5.52v4.78a.74.74,0,0,0,.73.74h12.36v1.69A.74.74,0,0,0,247,256.51Zm19.65-12a4.86,4.86,0,0,0,6.85.43,5.44,5.44,0,0,0,.42-.41,4,4,0,0,1,3.44,4v4h-11.6v-4.72a6.14,6.14,0,0,0-.68-2.82,4,4,0,0,1,1.57-.52ZM252,243.19a5.44,5.44,0,0,0,7.67.56,5.62,5.62,0,0,0,.55-.54,4.73,4.73,0,0,1,4.08,4.68V255H247.74v-7.15A4.74,4.74,0,0,1,252,243.19Zm-17.35,9.42v-4a4.07,4.07,0,0,1,3.59-4,4.86,4.86,0,0,0,6.85.43,5.44,5.44,0,0,0,.42-.41,3.94,3.94,0,0,1,1.44.51,6.1,6.1,0,0,0-.68,2.81v4.72Z" transform="translate(-227.66 -227.76)"/><path class="cls-1" d="M275.2,238v-2.13a5,5,0,0,0-10,0V238a5,5,0,0,0,10,0Zm-8.5,0v-2.13a3.51,3.51,0,0,1,7,0h0V238a3.51,3.51,0,0,1-7,0Z" transform="translate(-227.66 -227.76)"/><path class="cls-1" d="M246.78,238v-2.13a5,5,0,0,0-10,0V238a5,5,0,0,0,10,0Zm-8.5,0v-2.13a3.52,3.52,0,0,1,7,0h0V238a3.52,3.52,0,0,1-7,0Z" transform="translate(-227.66 -227.76)"/></svg>