<svg id="Capa_1" data-name="Capa 1" xmlns="http://www.w3.org/2000/svg" viewBox="0 0 20 20"><defs><style>.cls-1{fill:#a8a9a9;}</style></defs><path class="cls-1" d="M264.52,261.82l-5.23-1.72v-1.8a4.39,4.39,0,0,0,.72-1.91H261a1.5,1.5,0,0,0,1.5-1.49v-1.61a1.45,1.45,0,0,0-.27-.84v-.27a6.18,6.18,0,0,0-12.36,0v.27a1.45,1.45,0,0,0-.27.84v1.61a1.5,1.5,0,0,0,1.5,1.49H252a4.44,4.44,0,0,0,.73,1.93v1.78l-5.24,1.72a2.12,2.12,0,0,0-1.48,2V266h20v-2.15a2.12,2.12,0,0,0-1.48-2Zm-10.62-2.36a3.82,3.82,0,0,0,4.22,0v.81a3.82,3.82,0,0,1-2.12,1,3.73,3.73,0,0,1-2.1-1Zm5-6.62a1.81,1.81,0,0,1-1.5-1.78H256.2a1.81,1.81,0,0,1-1.81,1.81h-1.26v-.56a2.87,2.87,0,0,1,5.74,0Zm-5.74,1.24v0h1.26a3,3,0,0,0,2.4-1.21,3,3,0,0,0,2.08,1.2v1.79a2.93,2.93,0,0,1-.07.67h-2.13v1.18h1.63a2.82,2.82,0,0,1-2.3,1.25,3,3,0,0,1-2.87-3.1v-1.74Zm8.14.82a.32.32,0,0,1-.32.32H260V253H261a.32.32,0,0,1,.32.32ZM256,247.17a5,5,0,0,1,5,4.63h-1a4,4,0,0,0-8,0h-1A5,5,0,0,1,256,247.17Zm-5.27,7.73v-1.61a.32.32,0,0,1,.32-.32H252v2.25h-.91a.32.32,0,0,1-.32-.32Zm14.1,9.93H262v-1.21h-1.18v1.21h-9.58v-1.21H250v1.21h-2.86v-1a1,1,0,0,1,.67-.92l5.33-1.75a4.83,4.83,0,0,0,2.83,1.27,4.88,4.88,0,0,0,2.84-1.26l5.32,1.74a1,1,0,0,1,.67.92Z" transform="translate(-246 -246)"/></svg>