<svg width="20" height="20" viewBox="0 0 20 20" fill="none" xmlns="http://www.w3.org/2000/svg">
<path d="M15.7148 13.5714H17.1434V17.1428H15.7148V13.5714Z" fill="#A8A8A8"/>
<path d="M12.8574 10H14.286V17.1429H12.8574V10Z" fill="#A8A8A8"/>
<path d="M6.42885 17.1429C5.482 17.1417 4.57425 16.7651 3.90472 16.0956C3.23519 15.426 2.85856 14.5183 2.85742 13.5714H4.28599C4.28599 13.9952 4.41167 14.4095 4.64713 14.7619C4.88259 15.1143 5.21726 15.389 5.60881 15.5512C6.00037 15.7134 6.43123 15.7558 6.8469 15.6731C7.26257 15.5904 7.6444 15.3863 7.94408 15.0867C8.24376 14.787 8.44785 14.4052 8.53053 13.9895C8.61322 13.5738 8.57078 13.1429 8.40859 12.7514C8.2464 12.3598 7.97175 12.0252 7.61936 11.7897C7.26697 11.5542 6.85267 11.4286 6.42885 11.4286V10C7.37605 10 8.28446 10.3763 8.95423 11.046C9.624 11.7158 10.0003 12.6242 10.0003 13.5714C10.0003 14.5186 9.624 15.427 8.95423 16.0968C8.28446 16.7666 7.37605 17.1429 6.42885 17.1429Z" fill="#A8A8A8"/>
<path d="M18.5714 0H1.42857C1.04981 0.000378198 0.686664 0.151009 0.418837 0.418837C0.151009 0.686664 0.000378198 1.04981 0 1.42857V18.5714C0.000378198 18.9502 0.151009 19.3133 0.418837 19.5812C0.686664 19.849 1.04981 19.9996 1.42857 20H18.5714C18.9501 19.9994 19.3132 19.8487 19.581 19.581C19.8487 19.3132 19.9994 18.9501 20 18.5714V1.42857C19.9996 1.04981 19.849 0.686664 19.5812 0.418837C19.3133 0.151009 18.9502 0.000378198 18.5714 0ZM18.5714 6.42857H8.57143V1.42857H18.5714V6.42857ZM7.14286 1.42857V6.42857H1.42857V1.42857H7.14286ZM1.42857 18.5714V7.85714H18.5714L18.5729 18.5714H1.42857Z" fill="#A8A8A8"/>
</svg>
