<svg width="20" height="15" viewBox="0 0 20 15" fill="none" xmlns="http://www.w3.org/2000/svg">
<path fill-rule="evenodd" clip-rule="evenodd" d="M18.125 1.25H1.875C1.70924 1.25 1.55027 1.31585 1.43306 1.43306C1.31585 1.55027 1.25 1.70924 1.25 1.875V13.125C1.25 13.2908 1.31585 13.4497 1.43306 13.5669C1.55027 13.6842 1.70924 13.75 1.875 13.75H18.125C18.2908 13.75 18.4497 13.6842 18.5669 13.5669C18.6842 13.4497 18.75 13.2908 18.75 13.125V1.875C18.75 1.70924 18.6842 1.55027 18.5669 1.43306C18.4497 1.31585 18.2908 1.25 18.125 1.25ZM1.875 0C1.37772 0 0.900805 0.197544 0.549175 0.549175C0.197544 0.900806 0 1.37772 0 1.875L0 13.125C0 13.6223 0.197544 14.0992 0.549175 14.4508C0.900805 14.8025 1.37772 15 1.875 15H18.125C18.6223 15 19.0992 14.8025 19.4508 14.4508C19.8025 14.0992 20 13.6223 20 13.125V1.875C20 1.37772 19.8025 0.900806 19.4508 0.549175C19.0992 0.197544 18.6223 0 18.125 0H1.875Z" fill="#A8A8A8"/>
<path fill-rule="evenodd" clip-rule="evenodd" d="M6.25 7.5C6.25 7.33424 6.31585 7.17527 6.43306 7.05806C6.55027 6.94085 6.70924 6.875 6.875 6.875H15.625C15.7908 6.875 15.9497 6.94085 16.0669 7.05806C16.1842 7.17527 16.25 7.33424 16.25 7.5C16.25 7.66576 16.1842 7.82473 16.0669 7.94194C15.9497 8.05915 15.7908 8.125 15.625 8.125H6.875C6.70924 8.125 6.55027 8.05915 6.43306 7.94194C6.31585 7.82473 6.25 7.66576 6.25 7.5ZM6.25 4.375C6.25 4.20924 6.31585 4.05027 6.43306 3.93306C6.55027 3.81585 6.70924 3.75 6.875 3.75H15.625C15.7908 3.75 15.9497 3.81585 16.0669 3.93306C16.1842 4.05027 16.25 4.20924 16.25 4.375C16.25 4.54076 16.1842 4.69973 16.0669 4.81694C15.9497 4.93415 15.7908 5 15.625 5H6.875C6.70924 5 6.55027 4.93415 6.43306 4.81694C6.31585 4.69973 6.25 4.54076 6.25 4.375ZM6.25 10.625C6.25 10.4592 6.31585 10.3003 6.43306 10.1831C6.55027 10.0658 6.70924 10 6.875 10H15.625C15.7908 10 15.9497 10.0658 16.0669 10.1831C16.1842 10.3003 16.25 10.4592 16.25 10.625C16.25 10.7908 16.1842 10.9497 16.0669 11.0669C15.9497 11.1842 15.7908 11.25 15.625 11.25H6.875C6.70924 11.25 6.55027 11.1842 6.43306 11.0669C6.31585 10.9497 6.25 10.7908 6.25 10.625Z" fill="#A8A8A8"/>
<path d="M4.375 5C4.72018 5 5 4.72018 5 4.375C5 4.02982 4.72018 3.75 4.375 3.75C4.02982 3.75 3.75 4.02982 3.75 4.375C3.75 4.72018 4.02982 5 4.375 5Z" fill="#A8A8A8"/>
<path d="M4.375 8.125C4.72018 8.125 5 7.84518 5 7.5C5 7.15482 4.72018 6.875 4.375 6.875C4.02982 6.875 3.75 7.15482 3.75 7.5C3.75 7.84518 4.02982 8.125 4.375 8.125Z" fill="#A8A8A8"/>
<path d="M4.375 11.25C4.72018 11.25 5 10.9702 5 10.625C5 10.2798 4.72018 10 4.375 10C4.02982 10 3.75 10.2798 3.75 10.625C3.75 10.9702 4.02982 11.25 4.375 11.25Z" fill="#A8A8A8"/>
</svg>
